<svg width="21" height="39" viewBox="0 0 21 39" fill="none" xmlns="http://www.w3.org/2000/svg">
<path d="M2.81818 31V7.72727H10.6818C12.5 7.72727 13.9924 8.03788 15.1591 8.65909C16.3258 9.27273 17.1894 10.1174 17.75 11.1932C18.3106 12.2689 18.5909 13.4924 18.5909 14.8636C18.5909 16.2348 18.3106 17.4508 17.75 18.5114C17.1894 19.572 16.3295 20.4053 15.1705 21.0114C14.0114 21.6098 12.5303 21.9091 10.7273 21.9091H4.36364V19.3636H10.6364C11.8788 19.3636 12.8788 19.1818 13.6364 18.8182C14.4015 18.4545 14.9545 17.9394 15.2955 17.2727C15.6439 16.5985 15.8182 15.7955 15.8182 14.8636C15.8182 13.9318 15.6439 13.1174 15.2955 12.4205C14.947 11.7235 14.3902 11.1856 13.625 10.8068C12.8598 10.4205 11.8485 10.2273 10.5909 10.2273H5.63636V31H2.81818ZM13.7727 20.5455L19.5 31H16.2273L10.5909 20.5455H13.7727Z" fill="#508A16"/>
<path d="M2.81818 31H1.81818V32H2.81818V31ZM2.81818 7.72727V6.72727H1.81818V7.72727H2.81818ZM15.1591 8.65909L14.6891 9.54177L14.6936 9.54413L15.1591 8.65909ZM17.75 11.1932L16.8632 11.6553L16.8632 11.6553L17.75 11.1932ZM17.75 18.5114L16.8659 18.0441L17.75 18.5114ZM15.1705 21.0114L15.6293 21.8999L15.6338 21.8975L15.1705 21.0114ZM4.36364 21.9091H3.36364V22.9091H4.36364V21.9091ZM4.36364 19.3636V18.3636H3.36364V19.3636H4.36364ZM13.6364 18.8182L13.2071 17.915L13.2036 17.9167L13.6364 18.8182ZM15.2955 17.2727L14.4071 16.8136L14.4051 16.8174L15.2955 17.2727ZM13.625 10.8068L13.1742 11.6995L13.1813 11.703L13.625 10.8068ZM5.63636 10.2273V9.22727H4.63636V10.2273H5.63636ZM5.63636 31V32H6.63636V31H5.63636ZM13.7727 20.5455L14.6497 20.065L14.3651 19.5455H13.7727V20.5455ZM19.5 31V32H21.1881L20.377 30.5195L19.5 31ZM16.2273 31L15.347 31.4746L15.6303 32H16.2273V31ZM10.5909 20.5455V19.5455H8.91571L9.71068 21.02L10.5909 20.5455ZM3.81818 31V7.72727H1.81818V31H3.81818ZM2.81818 8.72727H10.6818V6.72727H2.81818V8.72727ZM10.6818 8.72727C12.3946 8.72727 13.7112 9.02105 14.6891 9.54176L15.6291 7.77642C14.2737 7.05471 12.6054 6.72727 10.6818 6.72727V8.72727ZM14.6936 9.54413C15.6964 10.0716 16.4049 10.7759 16.8632 11.6553L18.6368 10.731C17.9739 9.45896 16.9551 8.47385 15.6246 7.77405L14.6936 9.54413ZM16.8632 11.6553C17.3402 12.5707 17.5909 13.6321 17.5909 14.8636H19.5909C19.5909 13.3527 19.281 11.9672 18.6368 10.731L16.8632 11.6553ZM17.5909 14.8636C17.5909 16.0955 17.3401 17.1469 16.8659 18.0441L18.6341 18.9787C19.2811 17.7546 19.5909 16.3742 19.5909 14.8636H17.5909ZM16.8659 18.0441C16.4085 18.9095 15.7037 19.6041 14.7071 20.1252L15.6338 21.8975C16.9553 21.2065 17.9703 20.2345 18.6341 18.9787L16.8659 18.0441ZM14.7117 20.1228C13.7381 20.6255 12.4284 20.9091 10.7273 20.9091V22.9091C12.6322 22.9091 14.2846 22.5942 15.6292 21.8999L14.7117 20.1228ZM10.7273 20.9091H4.36364V22.9091H10.7273V20.9091ZM5.36364 21.9091V19.3636H3.36364V21.9091H5.36364ZM4.36364 20.3636H10.6364V18.3636H4.36364V20.3636ZM10.6364 20.3636C11.9628 20.3636 13.1276 20.1716 14.0691 19.7197L13.2036 17.9167C12.63 18.192 11.7948 18.3636 10.6364 18.3636V20.3636ZM14.0656 19.7214C15.0021 19.2763 15.7317 18.6161 16.1858 17.728L14.4051 16.8174C14.1774 17.2627 13.8009 17.6328 13.2071 17.915L14.0656 19.7214ZM16.1838 17.7319C16.6205 16.887 16.8182 15.9194 16.8182 14.8636H14.8182C14.8182 15.6715 14.6674 16.31 14.4071 16.8136L16.1838 17.7319ZM16.8182 14.8636C16.8182 13.8067 16.6201 12.8337 16.1899 11.9732L14.401 12.8677C14.6678 13.4011 14.8182 14.0569 14.8182 14.8636H16.8182ZM16.1899 11.9732C15.7346 11.0627 15.0092 10.3762 14.0687 9.91062L13.1813 11.703C13.7711 11.995 14.1593 12.3843 14.401 12.8677L16.1899 11.9732ZM14.0757 9.91417C13.1209 9.43203 11.9375 9.22727 10.5909 9.22727V11.2273C11.7595 11.2273 12.5988 11.4089 13.1743 11.6995L14.0757 9.91417ZM10.5909 9.22727H5.63636V11.2273H10.5909V9.22727ZM4.63636 10.2273V31H6.63636V10.2273H4.63636ZM5.63636 30H2.81818V32H5.63636V30ZM12.8957 21.0259L18.623 31.4805L20.377 30.5195L14.6497 20.065L12.8957 21.0259ZM19.5 30H16.2273V32H19.5V30ZM17.1075 30.5254L11.4711 20.0709L9.71068 21.02L15.347 31.4746L17.1075 30.5254ZM10.5909 21.5455H13.7727V19.5455H10.5909V21.5455Z" fill="black"/>
</svg>
